<svg version="1.0" xmlns="http://www.w3.org/2000/svg"
 width="800.000000pt" height="276.000000pt" viewBox="0 0 800.000000 276.000000"
 preserveAspectRatio="xMidYMid meet">
<g transform="translate(0.000000,276.000000) scale(0.100000,-0.100000)"
fill="#ffffff" stroke="none">
<path d="M840 2071 c-114 -22 -211 -71 -281 -143 -136 -140 -144 -369 -19
-512 62 -70 141 -105 420 -187 122 -36 170 -76 170 -143 0 -32 -45 -85 -87
-102 -86 -36 -238 -7 -363 70 -65 40 -90 44 -112 19 -28 -32 -118 -190 -118
-206 0 -27 40 -57 145 -108 115 -57 205 -79 323 -79 377 -1 627 267 532 572
-25 81 -99 167 -179 207 -50 25 -301 111 -324 111 -5 0 -35 11 -66 26 -56 25
-91 63 -91 99 0 36 32 77 76 96 89 38 201 20 333 -53 47 -26 64 -31 77 -22 22
13 114 182 114 210 0 26 -20 44 -90 79 -99 50 -166 66 -295 70 -66 2 -140 0
-165 -4z"/>
<path d="M1836 2065 c-8 -21 -8 -1348 0 -1369 5 -14 29 -16 160 -16 141 0 154
2 164 19 6 12 10 109 10 245 l0 226 158 0 c171 0 227 10 318 56 68 34 124 90
162 163 41 77 56 161 49 281 -4 82 -10 108 -36 163 -51 106 -129 175 -246 219
-57 20 -79 22 -396 26 -306 3 -337 2 -343 -13z m569 -274 c51 -23 92 -71 101
-117 10 -52 -1 -123 -23 -152 -47 -63 -99 -81 -230 -82 l-83 0 0 185 0 185 98
0 c72 0 107 -5 137 -19z"/>
<path d="M3252 2068 c-17 -17 -17 -1359 0 -1376 17 -17 299 -17 316 0 17 17
17 1359 0 1376 -8 8 -58 12 -158 12 -100 0 -150 -4 -158 -12z"/>
<path d="M4056 2065 c-8 -21 -8 -1348 0 -1369 5 -14 28 -16 153 -16 80 0 153
5 161 10 12 8 16 49 18 245 l3 236 76 -3 77 -3 42 -100 c23 -55 69 -163 101
-240 l58 -140 162 -3 162 -2 7 25 c7 29 10 23 -105 295 -50 118 -91 220 -91
227 0 6 9 14 19 18 31 10 111 102 137 159 63 137 58 345 -11 461 -50 85 -129
149 -230 187 -57 20 -79 22 -396 26 -306 3 -337 2 -343 -13z m581 -278 c18 -9
45 -34 60 -54 25 -32 28 -45 28 -108 0 -63 -3 -76 -28 -108 -43 -57 -77 -70
-199 -75 l-108 -5 0 188 0 187 108 -4 c75 -3 116 -9 139 -21z"/>
<path d="M5522 2068 c-17 -17 -17 -1359 0 -1376 17 -17 299 -17 316 0 17 17
17 1359 0 1376 -8 8 -58 12 -158 12 -100 0 -150 -4 -158 -12z"/>
<path d="M6736 2048 c-8 -18 -31 -73 -52 -123 -20 -49 -44 -108 -54 -130 -10
-22 -33 -76 -50 -120 -17 -44 -40 -98 -50 -120 -10 -22 -33 -76 -50 -120 -17
-44 -40 -98 -50 -120 -10 -22 -33 -76 -50 -120 -17 -44 -40 -98 -50 -120 -10
-22 -34 -80 -54 -130 -21 -49 -47 -110 -58 -135 -12 -25 -22 -63 -22 -85 l-1
-40 156 -3 c117 -2 159 1 167 10 6 7 25 49 42 93 17 44 40 98 50 120 10 22 33
76 50 120 17 44 40 98 50 120 10 22 33 76 50 120 17 44 40 98 49 120 10 22 26
60 36 84 18 42 19 43 29 20 5 -13 18 -42 27 -64 10 -22 45 -107 79 -190 34
-82 67 -163 75 -180 7 -16 29 -70 49 -120 20 -49 41 -99 46 -110 6 -11 21 -47
34 -80 l24 -60 164 0 163 0 3 24 c2 13 -4 42 -14 65 -10 23 -25 59 -35 81 -9
22 -33 81 -53 130 -21 50 -46 109 -57 132 -10 24 -19 45 -19 48 0 3 -9 24 -19
48 -11 23 -36 83 -56 132 -21 50 -43 104 -50 120 -8 17 -30 71 -50 120 -21 50
-43 104 -50 120 -8 17 -30 71 -51 120 -52 128 -72 175 -92 215 l-17 35 -112 3
-112 3 -15 -33z"/>
</g>
</svg>
